                        =!DK GROUP HD BLURAY RELEAESEES!=

===================================================================================

        Balto 3 Wings Of Change (2004) DVDRIP In [Hindi-Eng]By !!!dip

===================================================================================

Storyline:

The mail in the north used to be delivered by dogsled, but the success of airplane delivery leaves Balto and the other sled dogs feeling neglected. However, when a delivery plane crashes on a mountain side, the sled dogs get the opportunity to show their worth. This story also prominently features Balto's son, Kodi, who was among the puppy litter that we met in Balto II: Wolf Quest. Written by Karakul 

Cast:

Sean Astin...................Kodi (voice)
Jodi Benson..................Jenna (voice)
Keith Carradine..............Duke (voice)
Bill Fagerbakke..............Ralph / Mr. Conner (voice)
Charles Fleischer............Boris / White Mountain Postmaster (voice)
Charity James................Dusty (voice)
Maurice LaMarche.............Balto / Moose 1 / Moose 2 (voice)
Kathy Najimy.................Dipsy (voice)
David Paymer.................Mel (voice)
Kevin Schon..................Muc / Luc / Simpson (voice)
Jean Smart...................Stella (voice)
Carl Weathers................Kirby (voice) 

 
Directors : Phil Weinstein
Writers : Elana Lesser, Cliff Ruby
Stars:Sean Astin, Jodi Benson, Keith Carradine, Bill Fagerbakke, Charles Fleischer
Format : Color, Dubbed, Subtitled, Widescreen
Language :[Hindi-Eng]
Release Date :30 September 2004 
Run Time : 1h:18m:12s
Color :Color
SUBTITLE:NO


Video Specifications:

Release Title/Year/Language...:Balto 3 Wings Of Change (2004) DVDRIP In [Hindi-Eng]By !!!dip
Genre.........................:Animation | Adventure | Family   
Source........................:DVD


ID                               : 1
Format                           : MPEG-4 Visual
Format profile                   : Advanced Simple@L5
Format settings, Matrix          : Default (MPEG)
Codec ID                         : XVID
Codec ID/Hint                    : XviD
Duration                         : 1h 18mn
Bit rate                         : 1 083 Kbps
Width                            : 704 pixels
Height                           : 368 pixels
Display aspect ratio             : 1.913
Frame rate                       : 25.000 fps
Color space                      : YUV
Chroma subsampling               : 4:2:0
Bit depth                        : 8 bits
Scan type                        : Progressive
Compression mode                 : Lossy
Bits/(Pixel*Frame)               : 0.167
Stream size                      : 606 MiB (79%)
Team                             : DK Group HD Bluray Releases


Audio Specifications:


Audio #1
ID                               : 2
Format                           : MPEG Audio
Format version                   : Version 1
Format profile                   : Layer 3
Mode                             : Joint stereo
Mode extension                   : MS Stereo
Muxing mode                      : Header stripping
Codec ID                         : A_MPEG/L3
Codec ID/Hint                    : MP3
Duration                         : 1h 18mn
Bit rate mode                    : Constant
Bit rate                         : 128 Kbps
Channel(s)                       : 2 channels
Sampling rate                    : 48.0 KHz
Compression mode                 : Lossy
Stream size                      : 71.6 MiB (9%)
Title                            : !!!dip
Writing library                  : LAME3.97b
Language                         : English

Audio #2
ID                               : 3
Format                           : MPEG Audio
Format version                   : Version 1
Format profile                   : Layer 3
Mode                             : Joint stereo
Muxing mode                      : Header stripping
Codec ID                         : A_MPEG/L3
Codec ID/Hint                    : MP3
Duration                         : 1h 18mn
Bit rate mode                    : Constant
Bit rate                         : 128 Kbps
Channel(s)                       : 2 channels
Sampling rate                    : 48.0 KHz
Compression mode                 : Lossy
Delay relative to video          : 1s 0ms
Stream size                      : 71.6 MiB (9%)
Title                            : !!!dip
Language                         : Hindi

SAMPLE IMAGE:
 
http://www.pix2links.com/images/62470679954120028588.jpg
 
http://www.pix2links.com/images/00240140704778832705.jpg
 
http://www.pix2links.com/images/56257728557549850244.jpg
 
http://www.pix2links.com/images/32274064396004659335.jpg
 
http://www.pix2links.com/images/04576069613409021868.jpg
 